<?xml version="1.0" encoding="UTF-8" standalone="no"?>
<svg
   sodipodi:docname="word-wheel.svg"
   inkscape:version="1.2 (dc2aeda, 2022-05-15)"
   id="svg1375"
   version="1.1"
   viewBox="0 0 100 100"
   height="1in"
   width="1in"
   xml:space="preserve"
   xmlns:inkscape="http://www.inkscape.org/namespaces/inkscape"
   xmlns:sodipodi="http://sodipodi.sourceforge.net/DTD/sodipodi-0.dtd"
   xmlns="http://www.w3.org/2000/svg"
   xmlns:svg="http://www.w3.org/2000/svg"
   xmlns:rdf="http://www.w3.org/1999/02/22-rdf-syntax-ns#"
   xmlns:cc="http://creativecommons.org/ns#"
   xmlns:dc="http://purl.org/dc/elements/1.1/"><defs
     id="defs1369"><inkscape:path-effect
       effect="spiro"
       id="path-effect8249"
       is_visible="true"
       lpeversion="1" /><inkscape:path-effect
       effect="spiro"
       id="path-effect8243"
       is_visible="true"
       lpeversion="1" /></defs><sodipodi:namedview
     inkscape:window-maximized="1"
     inkscape:window-y="25"
     inkscape:window-x="1440"
     inkscape:window-height="1027"
     inkscape:window-width="1920"
     units="px"
     inkscape:showpageshadow="false"
     borderlayer="true"
     inkscape:pagecheckerboard="true"
     showgrid="false"
     inkscape:document-rotation="0"
     inkscape:current-layer="layer1"
     inkscape:document-units="in"
     inkscape:cy="48.171649"
     inkscape:cx="48.171649"
     inkscape:zoom="5.6568543"
     inkscape:pageshadow="2"
     inkscape:pageopacity="0.0"
     borderopacity="1.0"
     bordercolor="#666666"
     pagecolor="#ffffff"
     id="base"
     inkscape:deskcolor="#d1d1d1" /><metadata
     id="metadata1372"><rdf:RDF><cc:Work
         rdf:about=""><dc:format>image/svg+xml</dc:format><dc:type
           rdf:resource="http://purl.org/dc/dcmitype/StillImage" /></cc:Work></rdf:RDF></metadata><g
     id="layer1"
     inkscape:groupmode="layer"
     inkscape:label="Layer 1"><path
       id="path1316"
       style="fill:none;fill-rule:evenodd;stroke:#000000;stroke-width:0.499302;stroke-linecap:square;stop-color:#000000"
       d="M 63.500349,50 A 13.500349,13.500349 0 0 1 50,63.500349 13.500349,13.500349 0 0 1 36.499651,50 13.500349,13.500349 0 0 1 50,36.499651 13.500349,13.500349 0 0 1 63.500349,50 Z" /><g
       aria-label="W"
       id="text1372"
       style="font-size:11.0956px;line-height:1.25;font-family:'Arial Unicode MS';-inkscape-font-specification:'Arial Unicode MS';text-align:end;text-anchor:end;stroke-width:0.499302"><path
         d="m 55.108962,46.02877 -2.18878,7.942456 H 51.912476 L 50.178788,47.713697 Q 50.043344,47.231516 50.00542,46.982298 h -0.02167 l -0.222128,0.942693 -1.690346,6.046235 h -1.061883 l -2.11835,-7.942456 h 1.07272 l 1.224416,5.211898 q 0.2438,1.023959 0.308813,1.506141 0.01084,0.09752 0.01084,0.113773 h 0.02167 q 0.216711,-1.029377 0.34132,-1.473634 l 1.511559,-5.358178 h 1.278594 l 1.126897,4.01457 q 0.422586,1.495305 0.612208,2.817242 h 0.02167 q 0.113773,-0.644715 0.379244,-1.72827 l 1.251505,-5.103542 z"
         id="path9982" /></g><path
       id="circle2155"
       style="fill:none;fill-rule:evenodd;stroke:#000000;stroke-width:0.5;stroke-linecap:square;stop-color:#000000"
       d="M 63.519214,13.705552 A 13.519214,13.519214 0 0 1 50,27.224766 13.519214,13.519214 0 0 1 36.480786,13.705552 13.519214,13.519214 0 0 1 50,0.18633842 13.519214,13.519214 0 0 1 63.519214,13.705552 Z" /><g
       aria-label="R"
       id="text2159"
       style="font-size:11.1111px;line-height:1.25;font-family:'Arial Unicode MS';-inkscape-font-specification:'Arial Unicode MS';text-align:end;text-anchor:end;stroke-width:0.5"><path
         d="m 53.504772,17.682327 h -1.323784 q -1.188149,-1.877168 -1.475693,-2.30577 -0.287543,-0.428602 -0.607638,-0.732421 -0.31467,-0.309245 -0.596787,-0.390625 -0.276693,-0.08138 -0.737847,-0.08138 h -1.215277 v 3.510196 H 46.49523 V 9.7287761 h 3.521047 q 0.721571,0 1.209851,0.092231 0.488281,0.092231 0.857204,0.3906241 0.368924,0.292969 0.564236,0.743272 0.200738,0.450304 0.200738,0.949435 0,0.900607 -0.569661,1.448566 -0.569661,0.54796 -1.660155,0.694444 v 0.0217 q 0.797525,0.352647 1.497394,1.448566 z m -5.957026,-4.454205 h 2.256943 q 0.683593,0 1.079643,-0.113933 0.401475,-0.119357 0.64019,-0.455728 0.238715,-0.336372 0.238715,-0.754123 0,-0.542534 -0.39605,-0.922308 -0.39605,-0.379774 -1.307507,-0.379774 h -2.511934 z"
         id="path9986" /></g><path
       id="circle9842"
       style="fill:none;fill-rule:evenodd;stroke:#000000;stroke-width:0.499302;stroke-linecap:square;stop-color:#000000"
       d="M 63.500349,13.705551 A 13.500349,13.500349 0 0 1 50,27.2059 13.500349,13.500349 0 0 1 36.499651,13.705551 13.500349,13.500349 0 0 1 50,0.2052021 13.500349,13.500349 0 0 1 63.500349,13.705551 Z" /><text
       xml:space="preserve"
       style="font-style:normal;font-variant:normal;font-weight:normal;font-stretch:normal;font-size:11.0956px;line-height:1.25;font-family:'Arial Unicode MS';-inkscape-font-specification:'Arial Unicode MS';text-align:end;text-anchor:end;stroke-width:0.499302;stroke-dasharray:none"
       x="55.228153"
       y="17.676779"
       id="text9846"><tspan
         sodipodi:role="line"
         id="tspan9844"
         style="font-style:normal;font-variant:normal;font-weight:normal;font-stretch:normal;font-size:11.0956px;font-family:'Arial Unicode MS';-inkscape-font-specification:'Arial Unicode MS';stroke-width:0.499302;stroke-dasharray:none"
         x="55.228153"
         y="17.676779" /></text><path
       id="circle9842-4"
       style="fill:none;fill-rule:evenodd;stroke:#000000;stroke-width:0.499302;stroke-linecap:square;stop-color:#000000"
       d="M 27.250348,49.969215 A 13.500349,13.500349 0 0 1 13.749999,63.469564 13.500349,13.500349 0 0 1 0.24965,49.969215 13.500349,13.500349 0 0 1 13.749999,36.468866 13.500349,13.500349 0 0 1 27.250348,49.969215 Z" /><g
       aria-label="W"
       id="text9846-9"
       style="font-size:11.0956px;line-height:1.25;font-family:'Arial Unicode MS';-inkscape-font-specification:'Arial Unicode MS';text-align:end;text-anchor:end;stroke-width:0.499302"><path
         d="m 18.85896,45.997989 -2.18878,7.942456 h -1.007706 l -1.733688,-6.257528 q -0.135444,-0.482182 -0.173368,-0.7314 h -0.02167 l -0.222129,0.942693 -1.690345,6.046235 H 10.759389 L 8.6410395,45.997989 h 1.0727191 l 1.2244164,5.211898 q 0.2438,1.023959 0.308814,1.506141 0.01084,0.09752 0.01084,0.113773 h 0.02167 q 0.216711,-1.029377 0.34132,-1.473634 l 1.511559,-5.358178 h 1.278594 l 1.126897,4.01457 q 0.422586,1.495306 0.612209,2.817242 h 0.02167 q 0.113773,-0.644715 0.379244,-1.728269 l 1.251505,-5.103543 z"
         id="path9991" /></g><path
       id="circle9899"
       style="fill:none;fill-rule:evenodd;stroke:#000000;stroke-width:0.499302;stroke-linecap:square;stop-color:#000000"
       d="M 63.500349,86.25 A 13.500349,13.500349 0 0 1 50,99.750349 13.500349,13.500349 0 0 1 36.499651,86.25 13.500349,13.500349 0 0 1 50,72.749651 13.500349,13.500349 0 0 1 63.500349,86.25 Z" /><g
       aria-label="D"
       id="text9903"
       style="font-size:11.0956px;line-height:1.25;font-family:'Arial Unicode MS';-inkscape-font-specification:'Arial Unicode MS';text-align:end;text-anchor:end;stroke-width:0.499302"><path
         d="m 46.71683,82.278774 h 2.741393 q 0.720564,0 1.24067,0.07585 0.520106,0.07043 0.991453,0.357573 0.476764,0.281725 0.828919,0.78016 0.357573,0.498435 0.558031,1.148568 0.205875,0.644715 0.205875,1.565736 0,1.755359 -0.834337,2.887674 -0.834337,1.126897 -2.87142,1.126897 H 46.71683 Z m 1.051048,6.999763 h 1.701181 q 0.520106,0 0.926439,-0.06501 0.411751,-0.06501 0.828919,-0.352156 0.422587,-0.287142 0.698893,-0.942692 0.276306,-0.655551 0.276306,-1.733688 0,-0.595955 -0.108355,-1.110643 -0.102938,-0.520107 -0.39008,-0.942693 -0.281724,-0.428004 -0.650133,-0.623044 -0.368408,-0.200457 -0.720563,-0.2438 -0.346738,-0.04334 -0.893933,-0.04334 h -1.668674 z"
         id="path9995" /></g><path
       id="circle9907"
       style="fill:none;fill-rule:evenodd;stroke:#000000;stroke-width:0.499302;stroke-linecap:square;stop-color:#000000"
       d="M 99.750349,49.969215 A 13.500349,13.500349 0 0 1 86.25,63.469564 13.500349,13.500349 0 0 1 72.749651,49.969215 13.500349,13.500349 0 0 1 86.25,36.468866 13.500349,13.500349 0 0 1 99.750349,49.969215 Z" /><g
       aria-label="O"
       id="text9911"
       style="font-size:11.0956px;line-height:1.25;font-family:'Arial Unicode MS';-inkscape-font-specification:'Arial Unicode MS';text-align:end;text-anchor:end;stroke-width:0.499302"><path
         d="m 86.258125,45.862545 q 1.668674,0 2.730558,1.132314 1.061884,1.132315 1.061884,2.985194 0,1.84746 -1.067302,2.974357 -1.067301,1.121479 -2.72514,1.121479 -1.717434,0 -2.763064,-1.164821 -1.045631,-1.164821 -1.045631,-2.844331 0,-1.955816 1.056466,-3.077295 1.061884,-1.126897 2.752229,-1.126897 z m -0.01084,7.313994 q 1.208163,0 1.955816,-0.845173 0.75307,-0.845172 0.758488,-2.351313 0,-1.549484 -0.769324,-2.383821 -0.763906,-0.834337 -1.923309,-0.834337 -1.19191,0 -1.961234,0.818084 -0.769324,0.818084 -0.769324,2.508429 0,1.381532 0.75307,2.23754 0.753071,0.850591 1.955817,0.850591 z"
         id="path9999" /></g><path
       id="circle9915"
       style="fill:none;fill-rule:evenodd;stroke:#000000;stroke-width:0.499302;stroke-linecap:square;stop-color:#000000"
       d="M 89.150351,24.25 A 13.500349,13.500349 0 0 1 75.650002,37.750349 13.500349,13.500349 0 0 1 62.149652,24.25 13.500349,13.500349 0 0 1 75.650002,10.749651 13.500349,13.500349 0 0 1 89.150351,24.25 Z" /><g
       aria-label="E"
       id="text9919"
       style="font-size:11.0956px;line-height:1.25;font-family:'Arial Unicode MS';-inkscape-font-specification:'Arial Unicode MS';text-align:end;text-anchor:end;stroke-width:0.499302"><path
         d="m 78.616235,28.221228 h -5.932462 v -7.942456 h 5.748257 v 0.942692 h -4.697209 v 2.427163 h 4.393814 v 0.942692 h -4.393814 v 2.687216 h 4.881414 z"
         id="path10003" /></g><path
       id="circle9923"
       style="fill:none;fill-rule:evenodd;stroke:#000000;stroke-width:0.499302;stroke-linecap:square;stop-color:#000000"
       d="M 89.150351,75.650002 A 13.500349,13.500349 0 0 1 75.650002,89.150351 13.500349,13.500349 0 0 1 62.149652,75.650002 13.500349,13.500349 0 0 1 75.650002,62.149652 13.500349,13.500349 0 0 1 89.150351,75.650002 Z" /><g
       aria-label="L"
       id="text9927"
       style="font-size:11.0956px;line-height:1.25;font-family:'Arial Unicode MS';-inkscape-font-specification:'Arial Unicode MS';text-align:end;text-anchor:end;stroke-width:0.499302"><path
         d="M 78.134048,79.621231 H 73.16595 v -7.942456 h 1.051048 v 6.999763 h 3.91705 z"
         id="path10007" /></g><path
       id="circle9931"
       style="fill:none;fill-rule:evenodd;stroke:#000000;stroke-width:0.499302;stroke-linecap:square;stop-color:#000000"
       d="M 37.750349,24.25 A 13.500349,13.500349 0 0 1 24.25,37.750349 13.500349,13.500349 0 0 1 10.749651,24.25 13.500349,13.500349 0 0 1 24.25,10.749651 13.500349,13.500349 0 0 1 37.750349,24.25 Z" /><g
       aria-label="H"
       id="text9935"
       style="font-size:11.0956px;line-height:1.25;font-family:'Arial Unicode MS';-inkscape-font-specification:'Arial Unicode MS';text-align:end;text-anchor:end;stroke-width:0.499302"><path
         d="m 27.367928,28.221228 h -1.056466 v -3.738264 h -4.128343 v 3.738264 h -1.051048 v -7.942456 h 1.051048 v 3.261499 h 4.128343 v -3.261499 h 1.056466 z"
         id="path10011" /></g><path
       id="circle9939"
       style="fill:none;fill-rule:evenodd;stroke:#000000;stroke-width:0.499302;stroke-linecap:square;stop-color:#000000"
       d="M 37.750349,75.650002 A 13.500349,13.500349 0 0 1 24.25,89.150351 13.500349,13.500349 0 0 1 10.749651,75.650002 13.500349,13.500349 0 0 1 24.25,62.149652 13.500349,13.500349 0 0 1 37.750349,75.650002 Z" /><g
       aria-label="E"
       id="text9943"
       style="font-size:11.0956px;line-height:1.25;font-family:'Arial Unicode MS';-inkscape-font-specification:'Arial Unicode MS';text-align:end;text-anchor:end;stroke-width:0.499302"><path
         d="m 27.216231,79.621231 h -5.932462 v -7.942456 h 5.748258 v 0.942693 h -4.69721 v 2.427162 h 4.393814 v 0.942693 h -4.393814 v 2.687215 h 4.881414 z"
         id="path10015" /></g></g></svg>
