<?xml version="1.0" encoding="UTF-8" standalone="no"?>
<svg
   sodipodi:docname="word-grid.svg"
   inkscape:version="1.2 (dc2aeda, 2022-05-15)"
   id="svg1375"
   version="1.1"
   viewBox="0 0 100 100"
   height="1in"
   width="1in"
   xml:space="preserve"
   xmlns:inkscape="http://www.inkscape.org/namespaces/inkscape"
   xmlns:sodipodi="http://sodipodi.sourceforge.net/DTD/sodipodi-0.dtd"
   xmlns="http://www.w3.org/2000/svg"
   xmlns:svg="http://www.w3.org/2000/svg"
   xmlns:rdf="http://www.w3.org/1999/02/22-rdf-syntax-ns#"
   xmlns:cc="http://creativecommons.org/ns#"
   xmlns:dc="http://purl.org/dc/elements/1.1/"><defs
     id="defs1369"><inkscape:path-effect
       effect="spiro"
       id="path-effect8249"
       is_visible="true"
       lpeversion="1" /><inkscape:path-effect
       effect="spiro"
       id="path-effect8243"
       is_visible="true"
       lpeversion="1" /></defs><sodipodi:namedview
     inkscape:window-maximized="0"
     inkscape:window-y="25"
     inkscape:window-x="1440"
     inkscape:window-height="1027"
     inkscape:window-width="1920"
     units="px"
     inkscape:showpageshadow="false"
     borderlayer="true"
     inkscape:pagecheckerboard="true"
     showgrid="false"
     inkscape:document-rotation="0"
     inkscape:current-layer="layer1"
     inkscape:document-units="in"
     inkscape:cy="40.039921"
     inkscape:cx="26.781669"
     inkscape:zoom="5.6568543"
     inkscape:pageshadow="2"
     inkscape:pageopacity="0.0"
     borderopacity="1.0"
     bordercolor="#666666"
     pagecolor="#ffffff"
     id="base"
     inkscape:deskcolor="#d1d1d1" /><metadata
     id="metadata1372"><rdf:RDF><cc:Work
         rdf:about=""><dc:format>image/svg+xml</dc:format><dc:type
           rdf:resource="http://purl.org/dc/dcmitype/StillImage" /></cc:Work></rdf:RDF></metadata><g
     id="layer1"
     inkscape:groupmode="layer"
     inkscape:label="Layer 1"><text
       xml:space="preserve"
       style="font-style:normal;font-variant:normal;font-weight:normal;font-stretch:normal;font-size:11.0956px;line-height:1.25;font-family:'Arial Unicode MS';-inkscape-font-specification:'Arial Unicode MS';text-align:end;text-anchor:end;stroke-width:0.499302;stroke-dasharray:none"
       x="55.228153"
       y="17.676779"
       id="text9846"><tspan
         sodipodi:role="line"
         id="tspan9844"
         style="font-style:normal;font-variant:normal;font-weight:normal;font-stretch:normal;font-size:11.0956px;font-family:'Arial Unicode MS';-inkscape-font-specification:'Arial Unicode MS';stroke-width:0.499302;stroke-dasharray:none"
         x="55.228153"
         y="17.676779" /></text><path
       id="rect648"
       style="fill:none;fill-rule:evenodd;stroke:#000000;stroke-width:0.5;stroke-linecap:square;stop-color:#000000"
       d="M 3.1509565,2.4125023 H 23.186671 c 0.435286,0 0.785715,0.3504286 0.785715,0.7857143 V 23.233931 c 0,0.435286 -0.350429,0.785715 -0.785715,0.785715 H 3.1509565 c -0.4352857,0 -0.7857143,-0.350429 -0.7857143,-0.785715 V 3.1982166 c 0,-0.4352857 0.3504286,-0.7857143 0.7857143,-0.7857143 z" /><path
       id="rect2713"
       style="fill:none;fill-rule:evenodd;stroke:#000000;stroke-width:0.5;stroke-linecap:square;stop-color:#000000"
       d="m 27.705081,2.4125023 h 20.035715 c 0.435286,0 0.785714,0.3504286 0.785714,0.7857143 V 23.233931 c 0,0.435286 -0.350428,0.785715 -0.785714,0.785715 H 27.705081 c -0.435286,0 -0.785714,-0.350429 -0.785714,-0.785715 V 3.1982166 c 0,-0.4352857 0.350428,-0.7857143 0.785714,-0.7857143 z" /><path
       id="rect2721"
       style="fill:none;fill-rule:evenodd;stroke:#000000;stroke-width:0.5;stroke-linecap:square;stop-color:#000000"
       d="m 52.259206,2.4125023 h 20.035715 c 0.435286,0 0.785714,0.3504286 0.785714,0.7857143 V 23.233931 c 0,0.435286 -0.350428,0.785715 -0.785714,0.785715 H 52.259206 c -0.435286,0 -0.785714,-0.350429 -0.785714,-0.785715 V 3.1982166 c 0,-0.4352857 0.350428,-0.7857143 0.785714,-0.7857143 z" /><path
       id="rect2729"
       style="fill:none;fill-rule:evenodd;stroke:#000000;stroke-width:0.5;stroke-linecap:square;stop-color:#000000"
       d="M 76.813325,2.4125023 H 96.84904 c 0.435286,0 0.785714,0.3504286 0.785714,0.7857143 V 23.233931 c 0,0.435286 -0.350428,0.785715 -0.785714,0.785715 H 76.813325 c -0.435286,0 -0.785714,-0.350429 -0.785714,-0.785715 V 3.1982166 c 0,-0.4352857 0.350428,-0.7857143 0.785714,-0.7857143 z" /><path
       id="rect2755"
       style="fill:none;fill-rule:evenodd;stroke:#000000;stroke-width:0.5;stroke-linecap:square;stop-color:#000000"
       d="M 3.1509565,26.93512 H 23.186671 c 0.435286,0 0.785715,0.350428 0.785715,0.785714 v 20.035715 c 0,0.435285 -0.350429,0.785714 -0.785715,0.785714 H 3.1509565 c -0.4352857,0 -0.7857143,-0.350429 -0.7857143,-0.785714 V 27.720834 c 0,-0.435286 0.3504286,-0.785714 0.7857143,-0.785714 z" /><path
       id="rect2763"
       style="fill:none;fill-rule:evenodd;stroke:#000000;stroke-width:0.5;stroke-linecap:square;stop-color:#000000"
       d="m 27.705081,26.93512 h 20.035715 c 0.435286,0 0.785714,0.350428 0.785714,0.785714 v 20.035715 c 0,0.435285 -0.350428,0.785714 -0.785714,0.785714 H 27.705081 c -0.435286,0 -0.785714,-0.350429 -0.785714,-0.785714 V 27.720834 c 0,-0.435286 0.350428,-0.785714 0.785714,-0.785714 z" /><path
       id="rect2771"
       style="fill:none;fill-rule:evenodd;stroke:#000000;stroke-width:0.5;stroke-linecap:square;stop-color:#000000"
       d="m 52.259206,26.93512 h 20.035715 c 0.435286,0 0.785714,0.350428 0.785714,0.785714 v 20.035715 c 0,0.435285 -0.350428,0.785714 -0.785714,0.785714 H 52.259206 c -0.435286,0 -0.785714,-0.350429 -0.785714,-0.785714 V 27.720834 c 0,-0.435286 0.350428,-0.785714 0.785714,-0.785714 z" /><path
       id="rect2779"
       style="fill:none;fill-rule:evenodd;stroke:#000000;stroke-width:0.5;stroke-linecap:square;stop-color:#000000"
       d="M 76.813325,26.93512 H 96.84904 c 0.435286,0 0.785714,0.350428 0.785714,0.785714 v 20.035715 c 0,0.435285 -0.350428,0.785714 -0.785714,0.785714 H 76.813325 c -0.435286,0 -0.785714,-0.350429 -0.785714,-0.785714 V 27.720834 c 0,-0.435286 0.350428,-0.785714 0.785714,-0.785714 z" /><path
       id="rect2789"
       style="fill:none;fill-rule:evenodd;stroke:#000000;stroke-width:0.5;stroke-linecap:square;stop-color:#000000"
       d="M 3.1509565,51.457737 H 23.186671 c 0.435286,0 0.785715,0.350429 0.785715,0.785714 v 20.035715 c 0,0.435286 -0.350429,0.785714 -0.785715,0.785714 H 3.1509565 c -0.4352857,0 -0.7857143,-0.350428 -0.7857143,-0.785714 V 52.243451 c 0,-0.435285 0.3504286,-0.785714 0.7857143,-0.785714 z" /><path
       id="rect2797"
       style="fill:none;fill-rule:evenodd;stroke:#000000;stroke-width:0.5;stroke-linecap:square;stop-color:#000000"
       d="m 27.705081,51.457737 h 20.035715 c 0.435286,0 0.785714,0.350429 0.785714,0.785714 v 20.035715 c 0,0.435286 -0.350428,0.785714 -0.785714,0.785714 H 27.705081 c -0.435286,0 -0.785714,-0.350428 -0.785714,-0.785714 V 52.243451 c 0,-0.435285 0.350428,-0.785714 0.785714,-0.785714 z" /><path
       id="rect2805"
       style="fill:none;fill-rule:evenodd;stroke:#000000;stroke-width:0.5;stroke-linecap:square;stop-color:#000000"
       d="m 52.259206,51.457737 h 20.035715 c 0.435286,0 0.785714,0.350429 0.785714,0.785714 v 20.035715 c 0,0.435286 -0.350428,0.785714 -0.785714,0.785714 H 52.259206 c -0.435286,0 -0.785714,-0.350428 -0.785714,-0.785714 V 52.243451 c 0,-0.435285 0.350428,-0.785714 0.785714,-0.785714 z" /><path
       id="rect2813"
       style="fill:none;fill-rule:evenodd;stroke:#000000;stroke-width:0.5;stroke-linecap:square;stop-color:#000000"
       d="M 76.813325,51.457737 H 96.84904 c 0.435286,0 0.785714,0.350429 0.785714,0.785714 v 20.035715 c 0,0.435286 -0.350428,0.785714 -0.785714,0.785714 H 76.813325 c -0.435286,0 -0.785714,-0.350428 -0.785714,-0.785714 V 52.243451 c 0,-0.435285 0.350428,-0.785714 0.785714,-0.785714 z" /><path
       id="rect2823"
       style="fill:none;fill-rule:evenodd;stroke:#000000;stroke-width:0.5;stroke-linecap:square;stop-color:#000000"
       d="M 3.1509565,75.980354 H 23.186671 c 0.435286,0 0.785715,0.350429 0.785715,0.785715 v 20.035714 c 0,0.435286 -0.350429,0.785715 -0.785715,0.785715 H 3.1509565 c -0.4352857,0 -0.7857143,-0.350429 -0.7857143,-0.785715 V 76.766069 c 0,-0.435286 0.3504286,-0.785715 0.7857143,-0.785715 z" /><path
       id="rect2831"
       style="fill:none;fill-rule:evenodd;stroke:#000000;stroke-width:0.5;stroke-linecap:square;stop-color:#000000"
       d="m 27.705081,75.980354 h 20.035715 c 0.435286,0 0.785714,0.350429 0.785714,0.785715 v 20.035714 c 0,0.435286 -0.350428,0.785715 -0.785714,0.785715 H 27.705081 c -0.435286,0 -0.785714,-0.350429 -0.785714,-0.785715 V 76.766069 c 0,-0.435286 0.350428,-0.785715 0.785714,-0.785715 z" /><path
       id="rect2839"
       style="fill:none;fill-rule:evenodd;stroke:#000000;stroke-width:0.5;stroke-linecap:square;stop-color:#000000"
       d="m 52.259206,75.980354 h 20.035715 c 0.435286,0 0.785714,0.350429 0.785714,0.785715 v 20.035714 c 0,0.435286 -0.350428,0.785715 -0.785714,0.785715 H 52.259206 c -0.435286,0 -0.785714,-0.350429 -0.785714,-0.785715 V 76.766069 c 0,-0.435286 0.350428,-0.785715 0.785714,-0.785715 z" /><path
       id="rect2847"
       style="fill:none;fill-rule:evenodd;stroke:#000000;stroke-width:0.5;stroke-linecap:square;stop-color:#000000"
       d="M 76.813325,75.980354 H 96.84904 c 0.435286,0 0.785714,0.350429 0.785714,0.785715 v 20.035714 c 0,0.435286 -0.350428,0.785715 -0.785714,0.785715 H 76.813325 c -0.435286,0 -0.785714,-0.350429 -0.785714,-0.785715 V 76.766069 c 0,-0.435286 0.350428,-0.785715 0.785714,-0.785715 z" /><g
       aria-label="W"
       id="text3271"
       style="font-size:11.1111px;line-height:1.25;font-family:Arial;-inkscape-font-specification:'Arial, Normal';text-align:end;text-anchor:end;stroke-width:1.04167"><path
         d="m 9.9312327,41.709923 -2.110458,-7.953551 h 1.079643 l 1.2098513,5.213753 q 0.195312,0.819227 0.336371,1.627603 0.303819,-1.274956 0.358073,-1.470268 l 1.51367,-5.371088 h 1.26953 l 1.139322,4.025603 q 0.428602,1.497395 0.618489,2.815753 0.151909,-0.754123 0.39605,-1.730684 l 1.247829,-5.110672 h 1.057941 l -2.180987,7.953551 h -1.014539 l -1.676431,-6.060107 q -0.211588,-0.759548 -0.249566,-0.933159 -0.124782,0.54796 -0.233289,0.933159 l -1.687282,6.060107 z"
         id="path3606" /></g><g
       aria-label="W"
       id="text3331"
       style="font-size:11.1111px;line-height:1.25;font-family:Arial;-inkscape-font-specification:'Arial, Normal';text-align:end;text-anchor:end;stroke-width:1.04167"><path
         d="m 9.9312327,41.709923 -2.110458,-7.953551 h 1.079643 l 1.2098513,5.213753 q 0.195312,0.819227 0.336371,1.627603 0.303819,-1.274956 0.358073,-1.470268 l 1.51367,-5.371088 h 1.26953 l 1.139322,4.025603 q 0.428602,1.497395 0.618489,2.815753 0.151909,-0.754123 0.39605,-1.730684 l 1.247829,-5.110672 h 1.057941 l -2.180987,7.953551 h -1.014539 l -1.676431,-6.060107 q -0.211588,-0.759548 -0.249566,-0.933159 -0.124782,0.54796 -0.233289,0.933159 l -1.687282,6.060107 z"
         id="path3609" /></g><text
       xml:space="preserve"
       style="font-size:8.33334px;line-height:1.25;font-family:Arial;-inkscape-font-specification:Arial;text-align:end;text-anchor:end;stroke-width:1.04167"
       x="12.33754"
       y="12.33754"
       id="text3339"><tspan
         sodipodi:role="line"
         id="tspan3337"
         style="stroke-width:1.04167"></tspan></text><g
       aria-label="K"
       id="text3347"
       style="font-size:11.1111px;line-height:1.25;font-family:Arial;-inkscape-font-specification:Arial;text-align:end;text-anchor:end;stroke-width:1.04167"><path
         d="M 9.8810576,17.19285 V 9.2392989 h 1.0525164 v 3.9442231 l 3.949649,-3.9442231 h 1.426865 l -3.336585,3.2226531 3.483069,4.730898 h -1.388888 l -2.832028,-4.025604 -1.302082,1.26953 v 2.756074 z"
         id="path3612" /></g><g
       aria-label="O"
       id="text3351"
       style="font-size:11.1111px;line-height:1.25;font-family:Arial;-inkscape-font-specification:Arial;text-align:end;text-anchor:end;stroke-width:1.04167"><path
         d="m 33.919773,13.321868 q 0,-1.98025 1.063367,-3.09787 1.063367,-1.1230457 2.745223,-1.1230457 1.101345,0 1.985676,0.5262581 0.88433,0.5262586 1.345484,1.4702676 0.46658,0.938584 0.46658,2.132159 0,1.209852 -0.488281,2.164712 -0.488281,0.95486 -1.383462,1.448566 -0.895182,0.488281 -1.931422,0.488281 -1.123046,0 -2.007376,-0.542534 -0.884331,-0.542534 -1.34006,-1.481119 -0.455729,-0.938584 -0.455729,-1.985675 z m 1.085069,0.01628 q 0,1.437716 0.770398,2.267793 0.775824,0.824652 1.942273,0.824652 1.18815,0 1.953123,-0.835502 0.770398,-0.835503 0.770398,-2.370875 0,-0.971136 -0.330945,-1.692707 -0.325521,-0.726995 -0.960286,-1.123045 -0.62934,-0.401476 -1.416014,-0.401476 -1.117621,0 -1.925997,0.770399 -0.80295,0.764973 -0.80295,2.560761 z"
         id="path3615" /></g><g
       aria-label="R"
       id="text3355"
       style="font-size:11.1111px;line-height:1.25;font-family:Arial;-inkscape-font-specification:Arial;text-align:end;text-anchor:end;stroke-width:1.04167"><path
         d="M 58.772289,17.19285 V 9.2392989 h 3.526472 q 1.063367,0 1.616752,0.2170137 0.553385,0.2115883 0.884331,0.7541224 0.330946,0.542534 0.330946,1.199001 0,0.846353 -0.54796,1.426865 -0.547959,0.580511 -1.692706,0.737846 0.417751,0.200738 0.634765,0.39605 0.461154,0.423177 0.87348,1.057942 l 1.383462,2.164711 h -1.323784 l -1.052516,-1.654729 q -0.461154,-0.716145 -0.759548,-1.095919 -0.298394,-0.379774 -0.537109,-0.531684 -0.233289,-0.151909 -0.47743,-0.211588 -0.179036,-0.03798 -0.585937,-0.03798 h -1.220702 v 3.531897 z m 1.052516,-4.443355 h 2.262368 q 0.72157,0 1.128471,-0.146484 0.406901,-0.15191 0.618489,-0.47743 0.211588,-0.330946 0.211588,-0.716145 0,-0.564236 -0.412326,-0.927734 -0.4069,-0.363498 -1.291231,-0.363498 h -2.517359 z"
         id="path3618" /></g><g
       aria-label="Z"
       id="text3359"
       style="font-size:11.1111px;line-height:1.25;font-family:Arial;-inkscape-font-specification:Arial;text-align:end;text-anchor:end;stroke-width:1.04167"><path
         d="m 83.687198,17.19285 v -0.976561 l 4.074432,-5.094396 q 0.434027,-0.542535 0.824652,-0.94401 h -4.43793 V 9.2392989 h 5.696609 v 0.9385841 l -4.465056,5.517573 -0.482856,0.55881 h 5.07812 v 0.938584 z"
         id="path3621" /></g><g
       aria-label="D"
       id="text3363"
       style="font-size:11.1111px;line-height:1.25;font-family:Arial;-inkscape-font-specification:Arial;text-align:end;text-anchor:end;stroke-width:1.04167"><path
         d="m 34.435182,41.715466 v -7.953552 h 2.739797 q 0.927734,0 1.416015,0.113933 0.683593,0.157334 1.166448,0.56966 0.62934,0.531684 0.938584,1.361761 0.31467,0.824652 0.31467,1.888019 0,0.906032 -0.211588,1.605901 -0.211589,0.69987 -0.542534,1.161024 -0.330946,0.455728 -0.726996,0.72157 -0.390625,0.260416 -0.949435,0.39605 -0.553385,0.135634 -1.274955,0.135634 z m 1.052516,-0.938585 h 1.698132 q 0.786675,0 1.231553,-0.146484 0.450303,-0.146484 0.716145,-0.412326 0.374348,-0.374348 0.580511,-1.003688 0.211589,-0.634765 0.211589,-1.535372 0,-1.247828 -0.412326,-1.915146 -0.406901,-0.672742 -0.992838,-0.900606 -0.423176,-0.162761 -1.361761,-0.162761 h -1.671005 z"
         id="path3624" /></g><g
       aria-label="I"
       id="text3367"
       style="font-size:11.1111px;line-height:1.25;font-family:Arial;-inkscape-font-specification:Arial;text-align:end;text-anchor:end;stroke-width:1.04167"><path
         d="m 61.750807,41.715466 v -7.953552 h 1.052516 v 7.953552 z"
         id="path3627" /></g><g
       aria-label="G"
       id="text3371"
       style="font-size:11.1111px;line-height:1.25;font-family:Arial;-inkscape-font-specification:Arial;text-align:end;text-anchor:end;stroke-width:1.04167"><path
         d="m 87.140429,38.595894 v -0.933159 l 3.369137,-0.0054 v 2.951386 q -0.775824,0.618489 -1.600476,0.933159 -0.824652,0.309244 -1.692706,0.309244 -1.171874,0 -2.13216,-0.499131 -0.95486,-0.504557 -1.443141,-1.453992 -0.48828,-0.949435 -0.48828,-2.121309 0,-1.161023 0.482855,-2.164711 0.488281,-1.009114 1.399738,-1.497394 0.911458,-0.488281 2.099608,-0.488281 0.862629,0 1.557073,0.282118 0.699869,0.276692 1.095919,0.775823 0.39605,0.499132 0.602213,1.302083 l -0.949435,0.260416 q -0.179036,-0.607638 -0.444878,-0.95486 -0.265842,-0.347222 -0.759548,-0.553385 -0.493706,-0.211588 -1.095919,-0.211588 -0.721571,0 -1.247829,0.222439 -0.526258,0.217013 -0.851778,0.575086 -0.320096,0.358072 -0.499132,0.786674 -0.303819,0.737847 -0.303819,1.600476 0,1.063367 0.363498,1.779512 0.368923,0.716145 1.068792,1.063367 0.699869,0.347222 1.486544,0.347222 0.683593,0 1.334634,-0.260416 0.651041,-0.265842 0.987412,-0.564236 v -1.481118 z"
         id="path3630" /></g><g
       aria-label="T"
       id="text3375"
       style="font-size:11.1111px;line-height:1.25;font-family:Arial;-inkscape-font-specification:Arial;text-align:end;text-anchor:end;stroke-width:1.04167"><path
         d="m 12.637131,66.238083 v -7.014967 h -2.62044 v -0.938584 h 6.304247 v 0.938584 h -2.631291 v 7.014967 z"
         id="path3633" /></g><g
       aria-label="G"
       id="text3379"
       style="font-size:11.1111px;line-height:1.25;font-family:Arial;-inkscape-font-specification:Arial;text-align:end;text-anchor:end;stroke-width:1.04167"><path
         d="m 38.032183,63.118511 v -0.933159 l 3.369137,-0.0054 v 2.951386 q -0.775823,0.618489 -1.600475,0.933159 -0.824652,0.309244 -1.692707,0.309244 -1.171874,0 -2.132159,-0.499131 -0.954861,-0.504557 -1.443141,-1.453992 -0.488281,-0.949434 -0.488281,-2.121308 0,-1.161023 0.482855,-2.164712 0.488281,-1.009113 1.399738,-1.497394 0.911458,-0.488281 2.099608,-0.488281 0.862629,0 1.557073,0.282118 0.699869,0.276692 1.095919,0.775824 0.39605,0.499131 0.602213,1.302082 l -0.949435,0.260416 q -0.179036,-0.607638 -0.444878,-0.95486 -0.265842,-0.347222 -0.759548,-0.553385 -0.493706,-0.211588 -1.095919,-0.211588 -0.72157,0 -1.247829,0.222439 -0.526258,0.217014 -0.851778,0.575086 -0.320095,0.358073 -0.499132,0.786675 -0.303819,0.737846 -0.303819,1.600476 0,1.063367 0.363498,1.779512 0.368923,0.716145 1.068792,1.063367 0.69987,0.347222 1.486544,0.347222 0.683593,0 1.334634,-0.260417 0.651041,-0.265842 0.987412,-0.564235 v -1.481119 z"
         id="path3636" /></g><g
       aria-label="O"
       id="text3383"
       style="font-size:11.1111px;line-height:1.25;font-family:Arial;-inkscape-font-specification:Arial;text-align:end;text-anchor:end;stroke-width:1.04167"><path
         d="m 58.4739,62.367105 q 0,-1.98025 1.063367,-3.09787 1.063367,-1.123046 2.745223,-1.123046 1.101345,0 1.985675,0.526258 0.884331,0.526258 1.345485,1.470268 0.46658,0.938584 0.46658,2.132159 0,1.209851 -0.488281,2.164711 -0.488281,0.954861 -1.383462,1.448567 -0.895182,0.48828 -1.931422,0.48828 -1.123046,0 -2.007377,-0.542534 Q 59.385358,65.291364 58.929629,64.35278 58.4739,63.414196 58.4739,62.367105 Z m 1.085069,0.01628 q 0,1.437715 0.770398,2.267793 0.775824,0.824652 1.942272,0.824652 1.18815,0 1.953124,-0.835503 0.770398,-0.835503 0.770398,-2.370874 0,-0.971137 -0.330946,-1.692707 -0.32552,-0.726996 -0.960285,-1.123046 -0.62934,-0.401475 -1.416014,-0.401475 -1.117621,0 -1.925997,0.770398 -0.80295,0.764974 -0.80295,2.560762 z"
         id="path3639" /></g><g
       aria-label="I"
       id="text3387"
       style="font-size:11.1111px;line-height:1.25;font-family:Arial;-inkscape-font-specification:Arial;text-align:end;text-anchor:end;stroke-width:1.04167"><path
         d="m 86.304926,66.238083 v -7.953551 h 1.052516 v 7.953551 z"
         id="path3642" /></g><g
       aria-label="P"
       id="text3391"
       style="font-size:11.1111px;line-height:1.25;font-family:Arial;-inkscape-font-specification:Arial;text-align:end;text-anchor:end;stroke-width:1.04167"><path
         d="m 10.133336,90.760704 v -7.953551 h 3.000214 q 0.7921,0 1.209851,0.07595 0.585937,0.09766 0.981987,0.374348 0.39605,0.271267 0.634765,0.764973 0.244141,0.493707 0.244141,1.085069 0,1.014539 -0.645616,1.719833 -0.645616,0.699869 -2.332897,0.699869 h -2.039929 v 3.233504 z m 1.052516,-4.172088 h 2.056205 q 1.019964,0 1.448566,-0.379774 0.428602,-0.379774 0.428602,-1.068792 0,-0.499132 -0.254991,-0.851779 -0.249566,-0.358072 -0.661892,-0.472005 -0.265841,-0.07053 -0.981986,-0.07053 h -2.034504 z"
         id="path3645" /></g><g
       aria-label="S"
       id="text3395"
       style="font-size:11.1111px;line-height:1.25;font-family:Arial;-inkscape-font-specification:Arial;text-align:end;text-anchor:end;stroke-width:1.04167"><path
         d="m 34.55725,88.205368 0.992837,-0.08681 q 0.07053,0.596787 0.325521,0.981986 0.260416,0.379774 0.80295,0.618489 0.542535,0.23329 1.220702,0.23329 0.602213,0 1.063367,-0.179036 0.461154,-0.179036 0.683593,-0.488281 0.227865,-0.31467 0.227865,-0.683593 0,-0.374349 -0.217014,-0.651041 -0.217014,-0.282118 -0.716145,-0.472005 -0.320095,-0.124783 -1.416014,-0.385199 -1.095919,-0.265842 -1.535372,-0.499132 -0.569661,-0.298393 -0.851779,-0.737846 -0.276692,-0.444878 -0.276692,-0.992838 0,-0.602213 0.341796,-1.123045 0.341797,-0.526259 0.998263,-0.797526 0.656467,-0.271267 1.459417,-0.271267 0.884331,0 1.557073,0.287543 0.678168,0.282118 1.041666,0.835503 0.363498,0.553385 0.390625,1.253254 l -1.009114,0.07595 q -0.08138,-0.754123 -0.553385,-1.139322 -0.466579,-0.385199 -1.383462,-0.385199 -0.95486,0 -1.394313,0.352647 -0.434027,0.347222 -0.434027,0.840928 0,0.428602 0.309244,0.705294 0.303819,0.276693 1.5842,0.569661 1.285806,0.287543 1.763236,0.504557 0.694444,0.320095 1.02539,0.813801 0.330946,0.488281 0.330946,1.128471 0,0.634765 -0.363498,1.199001 -0.363498,0.55881 -1.047091,0.87348 -0.678168,0.309245 -1.529947,0.309245 -1.079643,0 -1.812064,-0.31467 -0.726996,-0.31467 -1.144747,-0.94401 -0.412326,-0.634765 -0.434027,-1.43229 z"
         id="path3648" /></g><g
       aria-label="R"
       id="text3399"
       style="font-size:11.1111px;line-height:1.25;font-family:Arial;-inkscape-font-specification:Arial;text-align:end;text-anchor:end;stroke-width:1.04167"><path
         d="m 58.772289,90.760704 v -7.953551 h 3.526472 q 1.063367,0 1.616752,0.217014 0.553385,0.211588 0.884331,0.754122 0.330946,0.542534 0.330946,1.199001 0,0.846353 -0.54796,1.426865 -0.547959,0.580511 -1.692706,0.737846 0.417751,0.200738 0.634765,0.39605 0.461154,0.423177 0.87348,1.057942 l 1.383462,2.164711 h -1.323784 l -1.052516,-1.654729 q -0.461154,-0.716145 -0.759548,-1.095919 -0.298394,-0.379774 -0.537109,-0.531684 -0.233289,-0.151909 -0.47743,-0.211588 -0.179036,-0.03798 -0.585937,-0.03798 h -1.220702 v 3.531898 z m 1.052516,-4.443355 h 2.262368 q 0.72157,0 1.128471,-0.146484 0.406901,-0.15191 0.618489,-0.47743 0.211588,-0.330946 0.211588,-0.716145 0,-0.564236 -0.412326,-0.927734 -0.4069,-0.363498 -1.291231,-0.363498 h -2.517359 z"
         id="path3651" /></g><g
       aria-label="V"
       id="text3403"
       style="font-size:11.1111px;line-height:1.25;font-family:Arial;-inkscape-font-specification:Arial;text-align:end;text-anchor:end;stroke-width:1.04167"><path
         d="M 86.275085,90.760704 83.19349,82.807153 h 1.139322 l 2.067055,5.777989 q 0.249566,0.694444 0.417752,1.302082 0.184461,-0.651041 0.428602,-1.302082 l 2.148435,-5.777989 h 1.074218 l -3.114146,7.953551 z"
         id="path3654" /></g></g></svg>
